<svg version="1.1" id="Layer_1" xmlns="http://www.w3.org/2000/svg" xmlns:xlink="http://www.w3.org/1999/xlink" x="0px" y="0px"
	 width="100%" viewBox="0 0 1920 1080" enable-background="new 0 0 1920 1080" xml:space="preserve">
<path fill="#000000" opacity="1.000000" stroke="none" 
	d="
M1259.000000,1081.000000 
	C840.833435,1081.000000 423.166809,1080.994141 5.500246,1081.092896 
	C1.751747,1081.093872 0.905860,1080.250000 0.906910,1076.500244 
	C1.006862,719.500305 1.006854,362.500366 0.907029,5.500443 
	C0.905981,1.752359 1.749542,0.906618 5.499595,0.907187 
	C642.499451,1.003863 1279.499390,1.003851 1916.499268,0.907399 
	C1920.246460,0.906831 1921.094238,1.748307 1921.093140,5.499264 
	C1920.993164,362.499176 1920.993042,719.499084 1921.092773,1076.499023 
	C1921.093750,1080.245605 1920.252686,1081.095337 1916.500977,1081.093628 
	C1697.500610,1080.988647 1478.500366,1081.000000 1259.000000,1081.000000 
z"/>
<path fill="#E9E9E9" opacity="1.000000" stroke="none" 
	d="
M1011.114014,633.400269 
	C1020.374573,627.550598 1025.056152,619.035339 1025.894653,608.214905 
	C1026.331055,602.582214 1027.255493,596.988708 1027.854980,591.366394 
	C1028.014648,589.869019 1028.207153,588.842651 1030.092041,588.936829 
	C1032.423828,589.053223 1031.629761,590.515503 1031.485352,591.747375 
	C1030.613647,599.182190 1029.961426,606.651123 1028.814087,614.043152 
	C1027.387085,623.237732 1022.179260,630.253784 1014.960876,635.822754 
	C1002.672974,645.303040 988.278259,649.091675 973.196350,650.477112 
	C953.357544,652.299500 933.977905,650.533997 915.868591,641.304993 
	C902.047852,634.261536 893.760010,623.717896 892.016113,607.621216 
	C887.338928,564.450745 881.976135,521.354309 876.850159,478.232697 
	C874.984680,462.539459 872.978638,446.862793 871.150024,431.165405 
	C870.921265,429.201813 870.333191,427.783020 868.749146,426.577209 
	C858.027710,418.416107 857.040527,405.912048 864.777771,397.449829 
	C872.691895,388.794189 874.190369,377.629120 875.613708,366.718658 
	C876.581848,359.296936 880.468018,354.571136 886.396545,350.932068 
	C895.606384,345.278839 905.840149,342.370911 916.320129,340.443451 
	C950.973267,334.070129 985.454163,334.245117 1019.589966,343.870483 
	C1022.292603,344.632538 1024.879639,345.797058 1027.539551,346.719635 
	C1039.411133,350.837280 1046.942505,358.406647 1047.953369,371.554626 
	C1048.282471,375.835602 1049.490479,380.043488 1050.178711,384.303833 
	C1051.042603,389.650696 1054.928345,393.364746 1057.701660,397.529266 
	C1064.865112,408.285828 1064.075806,417.595123 1054.110962,426.064575 
	C1052.091309,427.781281 1051.035400,429.483215 1050.718506,432.190552 
	C1046.868408,465.071503 1042.871338,497.935272 1038.906006,530.802734 
	C1038.789917,531.765381 1038.602661,532.719482 1038.364380,534.200134 
	C1036.052124,532.241577 1035.084717,530.340698 1035.412842,527.658447 
	C1039.148804,497.111542 1042.842163,466.559418 1046.538940,436.007721 
	C1046.689697,434.762665 1047.504272,433.322723 1046.181885,432.389923 
	C1045.769653,432.099121 1044.641724,432.611664 1043.946533,432.963715 
	C1025.514526,442.297943 1005.580566,445.899902 985.318420,447.710968 
	C956.286560,450.305969 927.488464,448.728210 899.202820,441.058777 
	C891.054993,438.849518 883.297180,435.599060 875.002380,431.388367 
	C876.221252,441.932404 877.292847,451.482056 878.434204,461.023407 
	C881.951111,490.424103 885.478027,519.823608 889.033203,549.219666 
	C891.669312,571.016357 894.355530,592.807068 897.145020,614.984497 
	C898.877075,615.277710 899.113403,616.603394 899.781738,617.958008 
	C901.737671,622.769470 904.612122,626.454163 908.731323,629.570251 
	C909.973877,630.090149 910.783203,630.648987 911.877563,631.475342 
	C918.684631,638.017517 927.145996,640.310791 935.488220,642.333801 
	C957.196960,647.598389 978.636230,646.533630 999.560364,638.253052 
	C1002.981445,636.899109 1005.994934,634.803589 1009.678284,633.158325 
	C1010.319458,633.090759 1010.578186,633.108948 1011.114014,633.400269 
z"/>
<path fill="#FCD20A" opacity="1.000000" stroke="none" 
	d="
M1057.265137,583.357178 
	C1056.105347,583.542542 1055.401245,583.672974 1054.365356,583.940796 
	C1050.575562,585.874939 1046.859375,584.916260 1043.276489,584.950134 
	C1024.725464,585.125916 1006.189636,586.376404 987.630249,585.779175 
	C983.757080,585.654480 979.148010,586.782104 976.857788,582.483765 
	C974.630249,578.303223 977.893372,574.939941 979.736328,571.512268 
	C981.860840,567.561035 984.289490,563.809692 987.985718,560.458679 
	C988.270813,559.990967 988.176697,559.782104 987.743042,559.625305 
	C987.207764,559.639282 987.012085,559.601318 987.113647,559.530579 
	C987.612488,559.711609 987.814148,559.925293 988.397278,559.918152 
	C987.933044,555.321045 991.942322,553.557129 994.034424,550.459839 
	C994.381348,550.344849 994.384399,550.260559 994.372131,550.295532 
	C994.842346,547.222900 996.363342,544.677246 998.878296,542.315796 
	C999.166687,542.118225 999.069763,542.062500 999.092407,542.113586 
	C999.445740,541.593140 999.286621,541.019043 999.415649,540.363159 
	C1000.206116,539.895447 1000.705200,539.509460 1001.237061,538.907959 
	C1001.437683,536.143372 1002.437988,534.040649 1004.859741,532.328735 
	C1005.152588,532.114319 1005.053101,532.059814 1005.079651,532.109924 
	C1005.195801,531.847656 1005.362732,531.584351 1005.747314,531.180054 
	C1005.887695,530.989990 1006.176453,530.795105 1006.178467,530.620911 
	C1006.311340,527.832764 1007.651184,525.666138 1008.940796,523.112061 
	C1009.337830,522.396973 1009.584473,521.997742 1010.030518,521.301147 
	C1012.268250,518.046875 1013.611267,514.331421 1018.322998,513.872314 
	C1018.938599,513.926086 1019.182495,513.972290 1019.775024,514.150024 
	C1021.821289,515.183472 1022.530762,516.665833 1022.811523,518.824097 
	C1034.358276,538.309875 1045.705078,557.488892 1057.296631,576.908081 
	C1060.078369,579.127197 1059.758301,581.189697 1057.265137,583.357178 
z"/>
<path fill="#4B4B4D" opacity="1.000000" stroke="none" 
	d="
M1003.217285,526.760254 
	C1000.211609,527.837463 1001.220581,525.656799 1001.276184,524.715698 
	C1002.550232,503.135254 1004.001282,481.564575 1005.131104,459.976959 
	C1005.352722,455.741699 1006.812866,453.870270 1010.986877,452.991211 
	C1019.289795,451.242706 1027.423706,448.802856 1034.798584,444.365051 
	C1036.300781,443.461060 1038.145630,442.469757 1037.780029,445.703491 
	C1035.054565,469.804169 1032.289795,493.900391 1029.520508,517.996094 
	C1029.509033,518.095398 1029.253540,518.166565 1029.004883,518.314636 
	C1027.333374,517.790161 1027.015137,515.874451 1025.492188,514.663818 
	C1024.773682,514.627686 1024.310181,514.669922 1023.503540,514.453552 
	C1017.422485,510.407227 1014.397217,510.996368 1010.448364,516.828003 
	C1008.955261,519.032959 1007.721130,521.395264 1006.220947,524.000977 
	C1005.473450,525.358215 1004.658081,526.155701 1003.217285,526.760254 
z"/>
<path fill="#080808" opacity="1.000000" stroke="none" 
	d="
M987.958740,560.259277 
	C985.317688,565.519958 982.228577,570.816711 979.234802,576.166809 
	C976.163513,581.655151 977.346619,583.752136 983.652710,583.771729 
	C1006.805054,583.843872 1029.957642,583.839600 1053.571777,583.971130 
	C1053.610596,586.092224 1052.035645,586.003723 1050.516724,585.992615 
	C1044.357300,585.947693 1038.191040,586.060303 1032.040527,585.800232 
	C1025.482178,585.522888 1023.097107,587.995422 1023.848145,594.426575 
	C1024.401123,599.162231 1021.677307,603.332092 1021.066406,607.921936 
	C1020.614868,611.314087 1018.976990,614.541138 1019.828735,618.112854 
	C1020.194336,619.645813 1019.117981,620.214844 1018.121948,621.217163 
	C1014.922913,624.436523 1012.452637,628.245178 1011.345093,633.212463 
	C1011.391113,633.673401 1011.362000,633.660828 1011.354614,633.674561 
	C1009.091553,632.562256 1007.018311,632.809692 1004.742126,633.972900 
	C987.196289,642.939331 968.280273,645.179993 949.102112,643.301147 
	C937.498596,642.164368 925.933289,639.203186 915.510986,633.283936 
	C914.130737,632.500000 912.814392,631.949158 911.098267,633.411621 
	C909.987610,633.064148 909.208679,632.516541 908.224976,631.674438 
	C906.796509,626.145447 903.514587,622.420288 898.909607,619.276733 
	C898.130859,618.107544 897.690430,617.078796 897.260376,615.709351 
	C899.542664,612.126892 901.043213,609.201965 899.324585,604.699890 
	C896.746704,597.946960 895.394226,590.711853 900.015869,583.946289 
	C901.334106,582.016541 901.014648,579.886719 899.894043,576.968994 
	C903.612793,578.818298 904.930725,576.708252 906.682983,574.904419 
	C910.032654,571.455872 913.699463,568.316284 917.210083,565.022278 
	C917.761658,564.504822 918.361938,564.225281 918.948914,564.683472 
	C923.011719,567.854858 925.683472,564.025146 928.732483,562.623596 
	C930.061829,562.012573 931.143921,560.934265 932.764893,561.010193 
	C945.484070,561.606262 958.100281,559.193726 970.858093,559.834351 
	C975.334473,560.059204 979.246948,563.115112 983.978943,561.724487 
	C985.251770,561.350342 986.410217,560.918152 987.958740,560.259277 
z"/>
<path fill="#E9E9E9" opacity="1.000000" stroke="none" 
	d="
M880.736938,708.357788 
	C877.063904,708.630554 876.034973,710.997009 876.042114,714.154297 
	C876.050110,717.653076 875.866638,721.163574 876.096863,724.647156 
	C876.303528,727.774780 875.057678,728.706238 872.069275,728.654663 
	C869.323364,728.607178 867.652161,728.248291 867.891907,724.859619 
	C868.173401,720.880554 867.798889,716.857971 868.013794,712.870667 
	C868.387939,705.927063 873.318848,701.954834 879.630310,699.756897 
	C893.886108,694.792358 908.399231,698.232361 922.734985,697.144531 
	C924.123596,697.039124 926.005310,696.458557 926.757751,698.216797 
	C927.395874,699.708130 925.851013,700.542114 924.974976,701.471619 
	C922.103699,704.518066 918.947754,706.887878 922.529907,712.106689 
	C924.261169,714.628906 922.997437,719.226990 923.035278,722.885681 
	C923.073120,726.550720 923.047424,730.216431 923.041748,733.881836 
	C923.034790,738.385132 920.522095,740.766418 916.274597,740.841431 
	C906.447998,741.014893 896.615479,740.928711 886.786377,740.837708 
	C883.609375,740.808289 880.859314,739.120667 880.748535,735.974304 
	C880.446228,727.388062 879.356201,718.738892 881.606079,709.852539 
	C881.235474,709.456177 881.704651,708.394104 880.736938,708.357788 
z"/>
<path fill="#E9E9E9" opacity="1.000000" stroke="none" 
	d="
M1030.765747,711.389771 
	C1027.635742,711.716675 1024.694824,712.202942 1021.770142,712.771912 
	C1018.947937,713.321045 1018.026855,712.289246 1018.898743,709.560364 
	C1022.225403,699.148071 1025.567749,688.740601 1028.827026,678.307251 
	C1029.288208,676.830933 1030.051025,676.208374 1031.545410,675.890503 
	C1037.223633,674.682495 1042.862671,673.291260 1048.529663,672.028809 
	C1052.016724,671.252014 1052.636841,672.517456 1051.355957,675.719055 
	C1048.467651,682.937927 1045.817505,690.252014 1042.933594,697.890076 
	C1047.835205,698.100769 1052.221069,696.518188 1056.732666,696.024109 
	C1057.685425,695.919739 1058.796509,695.607117 1059.477295,696.610840 
	C1060.195435,697.669861 1059.406738,698.556274 1058.812256,699.278748 
	C1046.485229,714.258789 1034.127319,729.213440 1020.931580,743.735107 
	C1024.481201,733.565918 1028.030762,723.396729 1031.648193,712.861938 
	C1031.076050,712.514465 1031.691040,711.493469 1030.765747,711.389771 
z"/>
<path fill="#E9E9E9" opacity="1.000000" stroke="none" 
	d="
M984.104492,721.117310 
	C982.312805,722.889160 980.841248,724.490540 979.202332,725.896851 
	C977.610535,727.262756 975.800842,727.348816 974.285034,725.767578 
	C972.790710,724.208801 972.905212,722.414307 974.295959,720.852905 
	C975.732971,719.239624 977.428528,717.854187 978.837280,716.219360 
	C979.635437,715.293030 981.436340,714.710754 980.873108,713.166199 
	C980.289551,711.565979 978.574524,712.265320 977.360352,712.256287 
	C969.363281,712.196655 961.364746,712.290405 953.368469,712.190063 
	C950.745117,712.157227 947.019226,713.226868 946.982178,708.803101 
	C946.946777,704.567627 950.465820,705.138123 953.238647,705.127441 
	C962.510254,705.091675 971.781982,705.113831 981.053711,705.113831 
	C981.349792,704.676636 981.645813,704.239441 981.941895,703.802185 
	C979.546936,701.674255 977.111023,699.590271 974.770874,697.403564 
	C973.127991,695.868286 972.491882,694.014954 974.244019,692.177307 
	C976.164185,690.163330 978.045105,690.739624 979.840149,692.556641 
	C984.640564,697.416016 989.419800,702.299377 994.340942,707.034424 
	C995.957581,708.589905 995.856323,709.539001 994.289062,711.009338 
	C990.888550,714.199585 987.653931,717.566650 984.104492,721.117310 
z"/>
<path fill="#E9E9E9" opacity="1.000000" stroke="none" 
	d="
M896.283936,677.532532 
	C895.567139,679.419922 895.008301,680.970825 894.288818,682.443237 
	C893.086792,684.903076 892.006836,687.326050 894.380310,689.699646 
	C895.219604,690.539124 895.453247,691.508972 894.604858,692.279602 
	C893.365845,693.405151 892.531494,692.213928 891.764709,691.416077 
	C888.883850,688.418518 889.450928,685.082336 891.051575,681.790588 
	C892.717407,678.364807 895.053894,675.054871 890.977112,671.672974 
	C890.206848,671.033936 890.512451,670.081482 891.179626,669.511230 
	C891.919861,668.878601 892.708618,669.260437 893.397400,669.805481 
	C895.784546,671.694580 896.971741,674.065308 896.283936,677.532532 
z"/>
<path fill="#E9E9E9" opacity="1.000000" stroke="none" 
	d="
M898.096313,688.927490 
	C897.465027,686.034363 898.038269,683.627502 899.211914,681.403320 
	C900.955566,678.098755 902.859192,674.907104 899.032715,671.705017 
	C898.271973,671.068359 898.560669,670.116089 899.204834,669.521912 
	C899.934814,668.848572 900.691406,669.233887 901.397461,669.780945 
	C904.792542,672.411682 905.247803,675.816467 903.745972,679.537659 
	C902.260437,683.218262 898.907593,686.673706 903.024658,690.730469 
	C903.226746,690.929565 902.850281,692.008911 902.469788,692.433289 
	C901.979980,692.979675 901.197937,692.798767 900.716370,692.278503 
	C899.827881,691.318542 899.028442,690.276184 898.096313,688.927490 
z"/>
<path fill="#E9E9E9" opacity="1.000000" stroke="none" 
	d="
M905.824707,686.792847 
	C905.874329,684.224487 906.822021,682.302246 907.773926,680.383179 
	C909.212280,677.483276 910.579590,674.614624 907.262573,671.973938 
	C906.590027,671.438538 906.310974,670.635437 906.995728,669.810791 
	C907.871155,668.756470 908.711182,669.195618 909.528198,669.867981 
	C913.230042,672.914856 913.192749,676.544495 911.272095,680.545288 
	C909.738647,683.739624 907.292419,686.921143 910.873657,690.404480 
	C911.502136,691.015808 911.172302,691.989319 910.368164,692.516541 
	C909.448669,693.119629 908.793762,692.423218 908.222961,691.884766 
	C906.869690,690.608154 905.889526,689.106689 905.824707,686.792847 
z"/>
<path fill="#080808" opacity="1.000000" stroke="none" 
	d="
M1056.942993,583.777832 
	C1058.754517,581.852173 1058.282227,579.878967 1057.646729,577.522095 
	C1061.447144,576.688599 1064.539185,576.878113 1061.528320,582.056824 
	C1061.293701,582.460388 1061.248657,582.981445 1061.149170,583.454956 
	C1060.917114,584.560303 1062.626709,586.133911 1060.572388,586.753174 
	C1058.447266,587.393860 1057.842285,585.561523 1056.942993,583.777832 
z"/>
<path fill="#080808" opacity="1.000000" stroke="none" 
	d="
M1003.237061,527.117737 
	C1003.415405,526.116577 1003.900818,525.278687 1004.612427,524.244934 
	C1006.296631,522.747498 1007.752319,521.438354 1010.262085,522.866089 
	C1009.321777,525.484192 1008.045044,527.761963 1006.474365,530.243225 
	C1005.661560,529.091797 1004.718262,528.090332 1003.237061,527.117737 
z"/>
<path fill="#080808" opacity="1.000000" stroke="none" 
	d="
M994.014526,550.278076 
	C992.647278,553.363220 990.913269,556.381592 988.979004,559.548706 
	C987.433716,559.020386 986.565796,557.679077 987.504639,556.589111 
	C989.422180,554.362976 990.368774,551.127686 994.014526,550.278076 
z"/>
<path fill="#080808" opacity="1.000000" stroke="none" 
	d="
M998.801025,542.123352 
	C997.743713,544.719666 996.320679,547.321106 994.628784,550.126526 
	C993.447937,546.468384 995.148560,543.904358 998.801025,542.123352 
z"/>
<path fill="#080808" opacity="1.000000" stroke="none" 
	d="
M1004.770752,532.123657 
	C1004.047791,534.159912 1002.942993,536.205444 1001.553955,538.471680 
	C999.921509,535.370361 999.631348,532.551514 1004.770752,532.123657 
z"/>
<path fill="#080808" opacity="1.000000" stroke="none" 
	d="
M1024.050537,513.750061 
	C1024.741821,513.928284 1024.918213,514.022644 1025.137207,514.316528 
	C1024.511963,515.758972 1023.802368,517.079651 1023.052063,518.765625 
	C1021.947754,518.037537 1020.884216,516.944214 1019.640625,515.574097 
	C1020.273071,513.379211 1021.756287,513.076965 1024.050537,513.750061 
z"/>
<path fill="#080808" opacity="1.000000" stroke="none" 
	d="
M987.249023,559.450684 
	C987.410767,559.497864 987.364563,559.581787 987.383972,559.629517 
	C987.403381,559.677307 986.930603,559.589478 986.930603,559.589478 
	C986.930603,559.589478 987.087341,559.403442 987.249023,559.450684 
z"/>
<path fill="#080808" opacity="1.000000" stroke="none" 
	d="
M999.485474,540.729126 
	C1000.364014,540.830505 999.928528,541.352173 999.391113,542.021484 
	C999.164795,541.835327 999.214417,541.506042 999.485474,540.729126 
z"/>
<path fill="#080808" opacity="1.000000" stroke="none" 
	d="
M1005.689941,531.134583 
	C1005.789001,531.312500 1005.690369,531.635010 1005.348938,532.058777 
	C1005.122375,531.817200 1005.251038,531.523560 1005.689941,531.134583 
z"/>
<path fill="#030303" opacity="1.000000" stroke="none" 
	d="
M887.614868,376.511353 
	C885.919678,375.120667 884.382812,374.082123 883.132385,372.770447 
	C878.547424,367.960754 878.579834,363.050507 883.207886,358.260345 
	C887.719543,353.590790 893.482849,351.038849 899.474365,348.922424 
	C919.982483,341.678345 941.286743,339.889160 962.811584,339.943359 
	C981.331177,339.989990 999.667664,341.810730 1017.516968,347.077423 
	C1024.705811,349.198608 1031.696411,351.852112 1037.578491,356.713379 
	C1044.391724,362.344330 1044.518066,368.633972 1037.702515,374.224792 
	C1029.231567,381.173553 1018.961731,384.158234 1008.518311,386.266022 
	C972.776001,393.479889 937.198242,393.404816 901.967285,383.031403 
	C897.005371,381.570435 892.370728,379.331177 887.614868,376.511353 
z"/>
<path fill="#030303" opacity="1.000000" stroke="none" 
	d="
M1018.819336,418.149109 
	C1001.927795,423.912323 984.534607,425.475861 967.059387,425.886108 
	C944.682007,426.411377 922.518127,424.514038 900.946167,417.979340 
	C894.395813,415.995056 888.096558,413.422577 882.431946,409.553070 
	C876.372314,405.413727 872.772217,400.290924 874.791016,392.257324 
	C876.472839,385.564606 877.246704,378.643768 878.492065,371.421661 
	C892.678772,385.540131 910.652527,388.440186 928.551941,390.937988 
	C956.471497,394.833984 984.315369,393.874939 1012.301636,387.710968 
	C1014.103333,387.459686 1015.026184,388.339203 1015.296509,389.453461 
	C1017.546875,398.727844 1019.742188,408.021912 1018.819336,418.149109 
z"/>
<path fill="#080808" opacity="1.000000" stroke="none" 
	d="
M1022.254639,436.742157 
	C1011.985962,440.810791 1001.446655,442.235840 990.901428,443.367065 
	C958.702698,446.821014 926.806152,445.649902 895.616699,436.023773 
	C885.567932,432.922424 875.880432,428.922760 868.368896,421.135101 
	C862.236328,414.777191 861.709839,408.569122 866.750122,401.701843 
	C868.680481,411.805542 876.091858,416.782410 884.252258,420.780548 
	C900.148987,428.569183 917.301392,431.757965 934.726868,433.447571 
	C965.104736,436.393097 995.190979,435.064697 1024.607788,426.080811 
	C1032.419067,423.695221 1039.899780,420.540588 1046.777588,415.308594 
	C1048.905151,418.279236 1046.481812,419.756775 1044.458862,421.085175 
	C1040.000610,424.012878 1035.276123,426.651581 1030.207031,428.190063 
	C1025.745605,429.544128 1022.913025,431.675812 1022.254639,436.742157 
z"/>
<path fill="#4B4B4D" opacity="1.000000" stroke="none" 
	d="
M1019.115356,418.630676 
	C1017.206970,409.217682 1015.672180,399.830719 1014.101807,390.449707 
	C1013.969910,389.661407 1013.599792,388.912994 1013.015625,387.886108 
	C1022.002197,384.866119 1031.362915,382.217957 1039.469482,375.885437 
	C1041.676270,376.308990 1042.308350,377.867401 1042.660278,379.479401 
	C1044.025269,385.734161 1045.122314,392.042847 1046.251343,398.343658 
	C1046.579346,400.174042 1045.962402,401.915436 1045.200562,404.041870 
	C1042.163452,409.590088 1036.929443,411.596558 1032.060913,413.906830 
	C1028.024414,415.822266 1023.684875,417.098694 1019.115356,418.630676 
z"/>
<path fill="#080808" opacity="1.000000" stroke="none" 
	d="
M1021.202515,424.463806 
	C1009.892700,428.799255 998.366821,430.366699 986.801208,431.474457 
	C956.759583,434.351868 927.025391,433.018921 897.959961,424.063263 
	C889.831116,421.558624 882.048279,418.233246 875.452759,412.716919 
	C868.713440,407.080414 867.546326,401.025299 872.043213,394.749237 
	C871.522827,404.009308 877.043518,409.061584 883.943848,412.975006 
	C898.085022,420.995056 913.731934,423.997833 929.589478,425.997070 
	C960.078674,429.840881 990.295166,428.222015 1020.586914,420.915405 
	C1021.979858,421.863556 1022.029907,422.952515 1021.202515,424.463806 
z"/>
<path fill="#000000" opacity="1.000000" stroke="none" 
	d="
M910.941528,633.817383 
	C911.089783,629.453491 912.913818,629.573059 916.056396,631.364563 
	C928.399597,638.400696 941.817139,641.558899 955.958984,642.060059 
	C967.937439,642.484436 979.715820,641.235962 991.203613,637.881653 
	C996.254028,636.407166 1001.263367,634.510010 1005.645203,631.522461 
	C1008.272461,629.731140 1009.812744,629.976501 1011.176392,633.266663 
	C1000.774353,641.585999 988.526489,644.983398 975.709717,646.443970 
	C955.583801,648.737427 935.911621,647.283936 917.468567,637.894836 
	C915.265198,636.773132 913.229736,635.321655 910.941528,633.817383 
z"/>
<path fill="#4B4B4D" opacity="1.000000" stroke="none" 
	d="
M1022.406372,437.082642 
	C1019.923523,430.845795 1022.904846,428.513733 1028.630127,427.103119 
	C1034.216675,425.726654 1039.304199,422.764862 1044.116455,419.514160 
	C1045.456543,418.608856 1047.116821,417.958069 1047.132568,415.525269 
	C1047.105835,415.110168 1047.266235,414.911682 1047.331421,414.929199 
	C1052.344116,413.964966 1053.328979,414.594971 1054.249268,419.883270 
	C1050.117310,426.007965 1044.044556,428.786743 1038.099243,431.518890 
	C1033.177368,433.780670 1027.909058,435.288116 1022.406372,437.082642 
z"/>
<path fill="#4B4B4D" opacity="1.000000" stroke="none" 
	d="
M1021.291565,424.817566 
	C1020.877991,423.755707 1020.840759,422.715576 1020.900940,421.296204 
	C1027.491943,417.837402 1034.556519,415.971649 1040.555054,411.855865 
	C1042.584839,410.463226 1044.400269,408.758392 1046.633301,407.094971 
	C1048.504517,405.964294 1049.306885,406.776855 1049.897705,408.566589 
	C1042.608887,417.987427 1032.097534,421.340607 1021.291565,424.817566 
z"/>
<path fill="#080808" opacity="1.000000" stroke="none" 
	d="
M1045.365479,404.237213 
	C1044.638550,394.923096 1042.147339,385.744080 1040.052246,376.128662 
	C1040.957153,374.262878 1042.111938,372.724335 1043.666748,370.652893 
	C1045.522217,379.434052 1047.247314,387.484131 1048.036255,395.704224 
	C1048.330078,398.766174 1048.053467,401.690918 1045.365479,404.237213 
z"/>
<path fill="#080808" opacity="1.000000" stroke="none" 
	d="
M1054.365723,420.144714 
	C1053.416748,417.090851 1051.860596,414.933899 1047.803467,415.045227 
	C1051.559814,411.319550 1054.688843,407.077606 1055.234131,401.140106 
	C1060.400513,408.276733 1060.202637,413.204865 1054.365723,420.144714 
z"/>
<path fill="#000000" opacity="1.000000" stroke="none" 
	d="
M898.669312,619.483521 
	C905.397461,620.208679 907.973633,623.301575 908.016113,630.925171 
	C903.952637,628.317993 900.806763,624.517639 898.669312,619.483521 
z"/>
<path fill="#080808" opacity="1.000000" stroke="none" 
	d="
M1050.215332,408.739380 
	C1049.052124,408.400970 1048.861572,407.048248 1047.272461,406.976044 
	C1048.825684,403.328796 1051.178589,399.798218 1050.198242,395.276733 
	C1054.155762,399.649872 1053.405518,404.063965 1050.215332,408.739380 
z"/>
<path fill="#080808" opacity="1.000000" stroke="none" 
	d="
M1022.001831,550.949585 
	C1021.938538,553.922974 1021.880615,556.408936 1021.803955,558.894348 
	C1021.722473,561.533264 1021.498108,563.571716 1017.757629,563.604370 
	C1014.038513,563.636841 1013.326965,561.973083 1013.233459,558.910339 
	C1012.990662,550.960876 1012.721985,543.008789 1012.230286,535.072266 
	C1012.071533,532.509155 1013.021606,531.827698 1015.291016,531.982483 
	C1016.611572,532.072510 1017.957764,532.127808 1019.266602,531.976135 
	C1022.074646,531.650574 1023.119873,532.697998 1022.865906,535.582825 
	C1022.430298,540.529602 1022.273071,545.500977 1022.001831,550.949585 
z"/>
<path fill="#080808" opacity="1.000000" stroke="none" 
	d="
M1014.263184,576.020081 
	C1011.353699,572.737610 1011.782593,569.959412 1014.977478,567.788330 
	C1017.437744,566.116577 1019.797058,566.877075 1021.523926,569.133423 
	C1023.487671,571.699341 1022.903992,574.157593 1020.550598,576.124023 
	C1018.685242,577.682739 1016.592529,577.524353 1014.263184,576.020081 
z"/>
<path fill="#000000" opacity="1.000000" stroke="none" 
	d="
M1024.310547,513.595215 
	C1023.101074,514.249268 1021.678284,514.586792 1019.858093,515.110779 
	C1019.460632,515.297241 1019.163879,515.350403 1019.092285,515.217773 
	C1014.794189,513.900696 1012.543030,515.816040 1011.231995,521.889160 
	C1011.142151,522.476196 1011.088989,522.732666 1010.759460,523.085815 
	C1008.863342,522.788330 1007.279358,523.419189 1005.257324,523.982544 
	C1006.047974,520.555237 1008.086792,517.499878 1010.221313,514.559387 
	C1014.216553,509.055603 1018.955872,508.701569 1024.310547,513.595215 
z"/>
<path fill="#080808" opacity="1.000000" stroke="none" 
	d="
M1011.374878,522.013977 
	C1010.107605,519.183044 1010.745911,516.492554 1013.480774,514.930115 
	C1014.987976,514.069031 1016.817505,511.469330 1018.952637,514.740967 
	C1014.677979,515.272400 1013.571716,518.985596 1011.374878,522.013977 
z"/>
<path fill="#EA4137" opacity="1.000000" stroke="none" 
	d="
M903.516479,599.026550 
	C899.615906,586.911011 901.804504,580.771179 912.098328,574.111633 
	C922.721191,567.239197 934.731995,564.633911 947.004761,563.092163 
	C956.436646,561.907288 965.927307,562.285034 975.398560,563.011292 
	C979.207031,563.303284 980.681702,564.342163 977.961182,568.070251 
	C976.111145,570.605652 974.576599,573.441284 973.318970,576.324951 
	C970.338074,583.159851 973.997742,588.818115 981.483032,588.913269 
	C992.140076,589.048706 1002.799927,588.953003 1013.458496,588.980103 
	C1021.707520,589.001099 1021.707458,589.017456 1019.114746,597.600586 
	C1016.809998,603.196838 1012.482727,606.247009 1007.765503,608.867676 
	C996.741516,614.992310 984.609131,617.440918 972.297119,618.385925 
	C957.299866,619.537170 942.335083,618.713074 927.734192,614.393677 
	C920.455872,612.240417 913.688416,609.202148 907.808105,604.331909 
	C906.125305,602.938110 904.538330,601.484680 903.516479,599.026550 
z"/>
<path fill="#8C060B" opacity="1.000000" stroke="none" 
	d="
M903.190002,599.089722 
	C930.915710,621.415710 962.293823,619.899414 994.400452,612.573914 
	C1003.761108,610.438232 1011.980225,605.643738 1018.695679,598.078979 
	C1019.937744,619.793274 1010.994812,628.337036 991.324097,634.810974 
	C971.462891,641.347656 950.997314,640.955261 930.986450,634.923218 
	C920.756592,631.839600 910.898743,627.249390 906.173157,616.521606 
	C903.825012,611.190857 903.327454,605.334534 903.190002,599.089722 
z"/>
<path fill="#000000" opacity="1.000000" stroke="none" 
	d="
M901.574524,617.353333 
	C901.367859,616.614624 901.626221,616.346802 902.199768,616.461365 
	C902.318848,616.485107 902.478943,616.654297 902.496826,616.774780 
	C902.582947,617.353943 902.301331,617.596863 901.574524,617.353333 
z"/>
<path fill="#030303" opacity="1.000000" stroke="none" 
	d="
M894.109314,737.787842 
	C883.581299,737.786011 883.581177,737.786011 883.579712,727.738098 
	C883.579102,723.743469 883.703369,719.743835 883.542236,715.755737 
	C883.400024,712.234680 884.656921,710.485291 888.392151,710.534790 
	C897.211914,710.651794 906.034668,710.668457 914.854675,710.577393 
	C918.380615,710.541016 920.091064,711.827515 919.999451,715.535645 
	C919.859741,721.191162 919.837036,726.856506 920.004700,732.510498 
	C920.121887,736.462219 918.253479,737.856506 914.565247,737.811829 
	C907.908569,737.731079 901.250183,737.788208 894.109314,737.787842 
z"/>
<path fill="#080808" opacity="1.000000" stroke="none" 
	d="
M889.378113,700.200806 
	C897.292480,700.196838 904.745483,700.302795 912.192444,700.138977 
	C914.961548,700.078125 915.916687,700.862976 915.880798,703.738892 
	C915.847290,706.419861 915.320801,707.572144 912.354126,707.496216 
	C905.073975,707.309937 897.785217,707.482910 890.501160,707.402100 
	C889.240845,707.388062 886.988342,708.278137 887.137817,705.875671 
	C887.257080,703.960571 885.371155,701.123230 889.378113,700.200806 
z"/>
<path fill="#080808" opacity="1.000000" stroke="none" 
	d="
M874.662109,707.178589 
	C871.223450,712.818542 873.695435,719.244019 871.729492,724.981201 
	C871.530884,718.994629 869.562134,712.909668 873.512207,707.020630 
	C874.038269,706.870728 874.243225,706.910400 874.662109,707.178589 
z"/>
<path fill="#080808" opacity="1.000000" stroke="none" 
	d="
M877.620972,705.545654 
	C876.062622,706.094727 874.881653,705.788574 876.258850,704.648804 
	C878.405396,702.872498 881.090698,702.385376 884.598877,703.585388 
	C882.201721,705.484680 879.815247,704.362427 877.620972,705.545654 
z"/>
<path fill="#000000" opacity="1.000000" stroke="none" 
	d="
M880.860535,708.490234 
	C881.384888,708.029114 882.483459,707.385193 882.070679,709.285583 
	C881.579773,709.286926 881.362000,709.070190 880.860535,708.490234 
z"/>
<path fill="#080808" opacity="1.000000" stroke="none" 
	d="
M874.086121,706.989380 
	C874.072388,706.341614 874.245544,705.663147 874.961304,705.908386 
	C875.219543,705.996948 875.313477,706.565491 875.179199,707.161072 
	C874.696960,707.320679 874.517883,707.234253 874.086121,706.989380 
z"/>
<path fill="#080808" opacity="1.000000" stroke="none" 
	d="
M1029.552246,728.789429 
	C1031.447876,722.882690 1033.334106,717.206421 1035.442017,711.613770 
	C1036.764771,708.104187 1036.481934,706.446228 1032.137817,707.529114 
	C1029.129517,708.278931 1026.015747,708.605835 1022.365662,709.219910 
	C1025.464600,699.297668 1028.364380,690.006104 1031.270874,680.716736 
	C1031.587646,679.703979 1032.191040,678.998352 1033.304932,678.765747 
	C1037.973511,677.791077 1042.530640,676.207153 1047.822754,675.914673 
	C1044.978271,683.437256 1042.393555,690.594849 1039.555786,697.650635 
	C1037.976562,701.577393 1039.201294,702.481079 1042.993652,701.668579 
	C1046.392578,700.940369 1049.838623,700.431152 1054.429688,699.619080 
	C1046.103516,709.932739 1038.447876,719.415894 1030.486084,729.040161 
	C1029.999023,729.139282 1029.817871,729.097290 1029.552246,728.789429 
z"/>
<path fill="#000000" opacity="1.000000" stroke="none" 
	d="
M1030.836304,711.537354 
	C1031.333008,710.946838 1032.009033,710.848022 1031.832031,712.250244 
	C1031.511841,712.291077 1031.307495,712.085754 1030.836304,711.537354 
z"/>
<path fill="#080808" opacity="1.000000" stroke="none" 
	d="
M1030.003662,729.015015 
	C1029.944336,729.512939 1029.708618,729.844666 1029.473022,730.176392 
	C1029.352661,729.803955 1029.232422,729.431458 1029.290039,728.791260 
	C1029.467896,728.523560 1029.827393,728.848694 1030.003662,729.015015 
z"/>
<path fill="#4B4B4D" opacity="1.000000" stroke="none" 
	d="
M1023.953003,359.493469 
	C1026.979736,362.879974 1026.473511,365.654388 1022.183655,368.792023 
	C1015.950256,373.351074 1008.527161,375.144562 1001.239258,376.475555 
	C973.126648,381.609833 945.013550,381.749603 917.111816,374.754120 
	C913.240234,373.783447 909.466309,372.415649 905.980042,370.388947 
	C902.905884,368.601837 899.952820,366.757507 899.826233,362.599640 
	C899.689819,358.118744 902.887329,356.141479 906.118347,354.401886 
	C914.168884,350.067322 923.093994,348.627563 931.968018,347.301178 
	C945.183411,345.325836 958.491760,345.804199 971.802795,346.477448 
	C957.984619,346.890991 944.354919,348.688843 930.980408,352.065796 
	C922.574829,354.188171 914.270935,356.827728 907.610962,362.792694 
	C903.776123,366.227234 903.969238,367.117096 908.603210,369.414276 
	C918.012390,374.078613 928.259216,375.694763 938.487183,376.760193 
	C961.443726,379.151672 984.334351,378.802734 1006.886841,373.068146 
	C1011.574280,371.876312 1016.127502,370.365387 1020.220276,367.628784 
	C1022.979919,365.783478 1024.615356,363.598053 1023.953003,359.493469 
z"/>
<path fill="#E9E9E9" opacity="1.000000" stroke="none" 
	d="
M932.742432,386.078247 
	C929.028320,385.561951 925.747437,385.160828 922.502258,384.565277 
	C921.498779,384.381104 919.962769,384.472748 919.925415,382.816132 
	C919.888245,381.165588 921.244751,380.469055 922.477539,380.224091 
	C924.069153,379.907867 925.776917,379.908813 927.402466,380.079712 
	C933.151245,380.684204 938.886230,381.420135 944.626648,382.104462 
	C945.925903,382.259338 947.619751,382.259613 947.854004,383.753845 
	C948.138733,385.570587 946.354919,386.250275 944.980835,386.637115 
	C941.025879,387.750549 937.119812,386.395294 932.742432,386.078247 
z"/>
<path fill="#4B4B4D" opacity="1.000000" stroke="none" 
	d="
M1017.735168,354.802307 
	C1016.225952,355.065155 1014.599060,355.061951 1013.395386,353.518066 
	C1015.234863,352.637756 1016.369690,353.919312 1017.735168,354.802307 
z"/>
<path fill="#4B4B4D" opacity="1.000000" stroke="none" 
	d="
M1023.796631,359.244019 
	C1023.009155,358.942657 1021.723816,358.943024 1022.379944,357.552307 
	C1022.871643,357.814545 1023.363342,358.076813 1023.992676,358.594360 
	C1024.130249,358.849640 1023.905762,359.110840 1023.796631,359.244019 
z"/>
<path fill="#4B4B4D" opacity="1.000000" stroke="none" 
	d="
M1010.346252,352.084656 
	C1010.858948,352.199371 1011.131226,352.347412 1011.403503,352.495453 
	C1010.977661,352.599609 1010.555176,352.727661 1010.123291,352.789398 
	C1010.027771,352.803070 1009.815552,352.586670 1009.809204,352.468140 
	C1009.803284,352.356995 1009.998901,352.235138 1010.346252,352.084656 
z"/>
<path fill="#4B4B4D" opacity="1.000000" stroke="none" 
	d="
M1018.037476,354.973022 
	C1018.324402,355.063507 1018.525391,355.238403 1018.726440,355.413269 
	C1018.495544,355.463562 1018.264709,355.513855 1017.909180,355.397522 
	C1017.784607,355.230865 1017.951599,355.057373 1018.037476,354.973022 
z"/>
<path fill="#4B4B4D" opacity="1.000000" stroke="none" 
	d="
M1020.615967,356.627258 
	C1020.399231,356.639771 1020.321655,356.560059 1020.244080,356.480347 
	C1020.414429,356.498566 1020.584839,356.516815 1020.615967,356.627258 
z"/>
<path fill="#4B4B4D" opacity="1.000000" stroke="none" 
	d="
M933.678467,420.124512 
	C931.861816,418.640198 932.009705,416.931396 932.110291,415.275604 
	C932.422241,410.139343 932.731079,405.001923 933.145630,399.873383 
	C933.296082,398.011230 933.732178,396.024017 936.211975,396.132690 
	C938.701660,396.241791 938.965820,398.185089 938.873169,400.115997 
	C938.594849,405.918488 938.308655,411.721863 937.906799,417.516663 
	C937.746094,419.833984 936.744568,421.396729 933.678467,420.124512 
z"/>
<path fill="#4B4B4D" opacity="1.000000" stroke="none" 
	d="
M942.215210,398.273895 
	C943.075684,394.975800 945.038269,396.812775 945.248169,397.999634 
	C946.515869,405.169037 946.326904,412.404724 945.055420,419.574524 
	C944.832520,420.831390 943.504700,421.208099 942.244690,421.063538 
	C940.940613,420.913910 939.954773,420.179016 940.035950,418.837524 
	C940.450867,411.978210 938.879272,404.995209 941.654602,398.116516 
	C944.128662,403.140381 942.666382,408.415039 942.580505,412.824280 
	C943.008972,408.608978 943.544495,403.567322 942.215210,398.273895 
z"/>
<path fill="#4B4B4D" opacity="1.000000" stroke="none" 
	d="
M924.947632,413.774780 
	C925.321228,408.506317 925.690857,403.698181 926.037598,398.888428 
	C926.179382,396.922272 926.587708,395.002899 929.054565,395.183167 
	C931.413696,395.355621 931.867126,397.331818 931.760986,399.251892 
	C931.476624,404.397461 931.191162,409.551117 930.611816,414.668213 
	C930.389099,416.635040 930.567810,419.699097 927.589233,419.623779 
	C924.101624,419.535645 925.071167,416.429688 924.947632,413.774780 
z"/>
<path fill="#4B4B4D" opacity="1.000000" stroke="none" 
	d="
M921.901794,394.106628 
	C924.531799,394.772980 924.863586,396.576996 924.684509,398.473816 
	C924.170532,403.919769 923.515198,409.352264 922.964417,414.794983 
	C922.775330,416.663055 922.146240,418.075714 920.001343,418.024170 
	C917.890320,417.973450 916.980957,416.554504 917.168579,414.695862 
	C917.801208,408.429108 918.559998,402.174011 919.368164,395.927094 
	C919.501953,394.893066 920.432129,394.290314 921.901794,394.106628 
z"/>
<path fill="#4B4B4D" opacity="1.000000" stroke="none" 
	d="
M912.019531,398.114838 
	C912.243469,395.368713 912.139038,392.481873 915.620667,393.149231 
	C918.575623,393.715668 917.827332,396.287720 917.558899,398.426361 
	C916.983826,403.006012 916.479370,407.594513 915.914368,412.175476 
	C915.654419,414.282898 915.684631,417.060608 912.689331,416.756042 
	C909.420227,416.423676 909.948792,413.576477 910.238770,411.279480 
	C910.775208,407.028839 911.410706,402.790680 912.019531,398.114838 
z"/>
<path fill="#4B4B4D" opacity="1.000000" stroke="none" 
	d="
M907.473022,414.456909 
	C904.251099,415.469147 902.894836,413.926880 903.200928,411.348602 
	C903.880005,405.628113 904.912415,399.949219 905.820862,394.256561 
	C906.099243,392.511993 906.666870,390.864410 908.900879,391.299408 
	C910.703369,391.650299 911.160889,393.184753 910.922668,394.766449 
	C909.945557,401.253662 909.821838,407.881256 907.473022,414.456909 
z"/>
<path fill="#4B4B4D" opacity="1.000000" stroke="none" 
	d="
M953.077820,406.096680 
	C953.040100,410.570618 953.012878,414.562012 952.961731,418.553131 
	C952.940613,420.199707 952.378113,421.674133 950.553101,421.770752 
	C948.583618,421.875061 947.404480,420.445740 947.271790,418.664795 
	C946.788940,412.183716 947.622192,405.735870 948.085876,399.283234 
	C948.179810,397.976196 949.140625,397.177368 950.451477,397.152649 
	C952.040405,397.122711 952.904114,398.089111 952.978210,399.629669 
	C953.073975,401.621460 953.050659,403.619019 953.077820,406.096680 
z"/>
<path fill="#080808" opacity="1.000000" stroke="none" 
	d="
M907.292603,360.217987 
	C905.606995,361.782898 904.196655,363.120972 902.527771,364.704407 
	C900.691772,360.723938 903.057617,358.648254 905.475647,357.127716 
	C912.302612,352.834808 920.006348,351.083679 927.994385,350.213135 
	C921.064148,353.272095 913.619629,355.193085 907.292603,360.217987 
z"/>
<path fill="#080808" opacity="1.000000" stroke="none" 
	d="
M931.426880,349.950256 
	C930.791199,348.368744 932.008301,349.289978 932.489807,349.100708 
	C932.591980,349.060516 932.847717,349.410980 933.032776,349.581451 
	C932.587097,349.716858 932.141418,349.852295 931.426880,349.950256 
z"/>
<path fill="#4B4B4D" opacity="1.000000" stroke="none" 
	d="
M929.262817,383.973083 
	C926.970337,383.527344 925.111694,383.114258 923.252991,382.701202 
	C930.449707,381.677612 937.298096,383.155640 944.182495,384.395203 
	C939.279419,385.912079 934.514587,384.239380 929.262817,383.973083 
z"/>
<path fill="#030303" opacity="1.000000" stroke="none" 
	d="
M933.976074,410.075806 
	C934.354553,405.857574 934.725403,402.109863 935.151978,397.799469 
	C938.052490,401.699890 937.575256,414.276978 934.564941,418.975037 
	C933.219849,416.005096 934.126770,413.215759 933.976074,410.075806 
z"/>
<path fill="#030303" opacity="1.000000" stroke="none" 
	d="
M941.990234,398.006897 
	C944.377075,398.149597 944.333557,399.875183 944.308899,401.589600 
	C944.237305,406.567291 944.211365,411.546295 944.061829,416.521637 
	C944.026794,417.685883 944.559387,419.655884 942.526550,419.494568 
	C940.824646,419.359467 940.993286,417.567505 941.056946,416.266724 
	C941.340149,410.478180 941.681213,404.692474 942.013306,398.439636 
	C942.025208,397.973541 942.002441,397.996674 941.990234,398.006897 
z"/>
<path fill="#030303" opacity="1.000000" stroke="none" 
	d="
M929.692017,407.557800 
	C929.387268,410.655853 929.185852,413.307098 928.971375,415.957336 
	C928.901550,416.820038 928.676147,417.717865 927.674683,417.792206 
	C926.340027,417.891266 925.882996,416.791901 926.077271,415.806488 
	C927.280640,409.703766 926.115417,403.257568 928.595947,396.308624 
	C930.938354,400.422333 929.704041,403.836609 929.692017,407.557800 
z"/>
<path fill="#080808" opacity="1.000000" stroke="none" 
	d="
M922.247437,405.320984 
	C921.730530,409.396271 922.802429,413.334045 919.505615,417.770508 
	C918.350525,409.608582 920.095642,402.973236 920.995850,394.879242 
	C924.149170,399.011597 922.578918,401.986725 922.247437,405.320984 
z"/>
<path fill="#080808" opacity="1.000000" stroke="none" 
	d="
M915.714417,401.626617 
	C914.608826,406.195618 915.573486,410.702606 912.889221,414.581635 
	C911.382812,407.732178 913.146912,401.131378 914.353577,393.673767 
	C917.069824,396.428802 915.673645,398.936249 915.714417,401.626617 
z"/>
<path fill="#080808" opacity="1.000000" stroke="none" 
	d="
M909.043091,398.893555 
	C907.907043,403.726807 908.366943,408.459229 905.918579,412.621216 
	C904.117065,406.030212 907.099792,399.858673 907.093994,392.863037 
	C910.226440,394.596191 908.688110,396.783173 909.043091,398.893555 
z"/>
<path fill="#030303" opacity="1.000000" stroke="none" 
	d="
M950.169373,398.750610 
	C951.965393,399.033112 951.991821,400.235260 951.988892,401.404968 
	C951.976135,406.546478 951.947388,411.688019 951.899719,416.829315 
	C951.888733,418.012970 951.767029,419.470825 950.404297,419.625977 
	C948.628540,419.828156 948.899109,418.134125 948.949890,417.116150 
	C949.252625,411.051086 948.123413,404.915833 950.169373,398.750610 
z"/>
</svg>